<?xml version="1.0" encoding="UTF-8" standalone="no"?>
<!-- Generator: Adobe Illustrator 16.0.4, SVG Export Plug-In . SVG Version: 6.00 Build 0)  -->

<svg
   xmlns:dc="http://purl.org/dc/elements/1.1/"
   xmlns:cc="http://creativecommons.org/ns#"
   xmlns:rdf="http://www.w3.org/1999/02/22-rdf-syntax-ns#"
   xmlns:svg="http://www.w3.org/2000/svg"
   xmlns="http://www.w3.org/2000/svg"
   xmlns:sodipodi="http://sodipodi.sourceforge.net/DTD/sodipodi-0.dtd"
   xmlns:inkscape="http://www.inkscape.org/namespaces/inkscape"
   version="1.1"
   id="Capa_1"
   x="0px"
   y="0px"
   width="64px"
   height="64px"
   viewBox="0 0 64 64"
   enable-background="new 0 0 64 64"
   xml:space="preserve"
   inkscape:version="0.48.5 r10040"
   sodipodi:docname="maneki.svg"><metadata
     id="metadata3071"><rdf:RDF><cc:Work
         rdf:about=""><dc:format>image/svg+xml</dc:format><dc:type
           rdf:resource="http://purl.org/dc/dcmitype/StillImage" /><dc:title></dc:title></cc:Work></rdf:RDF></metadata><defs
     id="defs3069" /><sodipodi:namedview
     pagecolor="#ffffff"
     bordercolor="#666666"
     borderopacity="1"
     objecttolerance="10"
     gridtolerance="10"
     guidetolerance="10"
     inkscape:pageopacity="0"
     inkscape:pageshadow="2"
     inkscape:window-width="1918"
     inkscape:window-height="1064"
     id="namedview3067"
     showgrid="false"
     inkscape:zoom="7.660845"
     inkscape:cx="44.814801"
     inkscape:cy="23.685754"
     inkscape:window-x="0"
     inkscape:window-y="14"
     inkscape:window-maximized="0"
     inkscape:current-layer="layer1" /><g
     id="g3049" /><g
     inkscape:groupmode="layer"
     id="layer2"
     inkscape:label="Cat"
     style="display:inline"><path
       inkscape:connector-curvature="0"
       d="m 49.551334,23.074752 c -0.260285,-0.411908 -0.528152,-0.817499 -0.818763,-1.205401 -0.116244,0.141515 -0.238806,0.291874 -0.386638,0.464977 -0.174366,0.203427 -0.366421,0.42707 -0.574903,0.672194 -3.014766,3.521439 -7.401719,5.201925 -11.818996,6.07502 -0.109927,0.02148 -0.22238,0.03411 -0.33357,0.0518 0.281765,0.53447 0.456132,1.132117 0.456132,1.776514 0,2.117665 -1.722183,3.839847 -3.839848,3.839847 -2.117664,0 -3.839847,-1.722182 -3.839847,-3.839847 0,-0.644397 0.174367,-1.243307 0.457396,-1.777777 -0.11119,-0.01895 -0.223644,-0.03032 -0.33357,-0.0518 C 24.388269,28.636781 20.461239,26.496373 17.450263,23.70146 17.177342,23.448755 16.92211,23.211213 16.687095,22.992623 16.481141,22.75129 16.292876,22.530174 16.1223,22.330537 c -0.03538,-0.0417 -0.05938,-0.07202 -0.0935,-0.112454 -0.08592,0.590066 -0.24765,1.214246 -0.296927,1.555398 -0.401801,2.748163 -0.827608,5.515278 -0.712628,8.301347 0.05307,1.300166 0.216063,2.605385 0.63808,3.841111 0.113717,0.332306 0.242596,0.659559 0.374003,0.986811 0.392955,0.974177 0.812445,1.940772 0.921108,2.997078 0.317144,3.108267 -2.403221,5.891808 -5.483691,5.891808 -1.300165,0 -2.5080931,-0.531943 -3.5315469,-1.339334 -0.5028823,5.827369 0.657032,11.410878 5.3257499,14.920946 0.0025,0 1.297638,0.82129 3.789306,0.82129 1.776514,0 3.723603,-0.429598 5.78441,-1.235726 0.411908,-0.160467 -0.422017,-2.401958 -0.543315,-2.644554 -0.633025,-1.247098 -1.79673,-2.324883 -3.094369,-2.860617 -0.262813,-0.108663 -0.510463,-0.209745 -0.739161,-0.305772 -0.228698,-0.113717 -0.458659,-0.127616 -0.655768,-0.178157 -0.200901,-0.0417 -0.37653,-0.07834 -0.520572,-0.109927 -0.293137,-0.06065 -0.459922,-0.09603 -0.459922,-0.09603 0,0 0.169312,-0.0051 0.46624,-0.01264 0.150359,-0.0038 0.33357,-0.0088 0.543315,-0.0139 0.209745,0.0051 0.456132,-0.03664 0.708836,0.02401 2.907367,0.689883 5.838741,2.24149 6.579166,5.401561 0.04675,0.200901 0.08718,0.377794 0.121298,0.523099 0.01011,0.04296 0.0139,0.06191 0.02274,0.09729 1.896549,0.165522 5.184236,0.424544 6.967067,0.424544 1.202875,0 2.405749,-0.08087 3.604832,-0.162994 0.760641,-0.05181 2.519466,0.18321 3.168916,-0.238806 0.370213,-0.241333 0.338625,-0.7101 0.481403,-1.137171 0.319671,-0.959014 0.875621,-1.871278 1.571823,-2.605385 1.429045,-1.499802 3.505013,-2.377951 5.572137,-2.326146 0.209745,0.0051 0.391692,0.01011 0.543315,0.0139 0.295665,0.0076 0.46624,0.01264 0.46624,0.01264 0,0 -0.168048,0.03538 -0.459922,0.09603 -0.144042,0.03032 -0.319672,0.06823 -0.520572,0.109927 -0.197109,0.0518 -0.427071,0.06444 -0.655768,0.178157 -0.229962,0.09603 -0.478876,0.197109 -0.740425,0.305772 -0.266603,0.08718 -0.518044,0.247651 -0.768222,0.41949 -0.247651,0.17563 -0.526889,0.310827 -0.759378,0.521835 -0.224907,0.213536 -0.449814,0.430862 -0.678511,0.648188 -0.228698,0.207217 -0.367686,0.496564 -0.55216,0.727789 l -0.252705,0.35505 -0.166785,0.392956 c -0.09855,0.256495 -0.240069,0.494037 -0.291874,0.717681 -0.03411,0.224907 -0.07202,0.42328 -0.11119,0.6027 -0.02274,0.08845 -0.0417,0.17184 -0.06191,0.251442 0,0.116244 0,0.227434 0.0025,0.331043 0,0.207217 0,0.387901 0.0025,0.536997 2.060806,0.806128 4.007895,1.235726 5.784409,1.235726 2.508094,0 3.805732,-0.833926 3.817104,-0.844034 11.451311,-8.600802 1.7285,-29.730701 -1.676696,-36.275752 z M 32.230958,53.205991 c -4.510778,0 -8.18005,-3.668008 -8.18005,-8.18005 0,-4.509514 3.670535,-8.180049 8.18005,-8.180049 4.509514,0 8.180049,3.669271 8.180049,8.180049 0,4.512042 -3.670535,8.18005 -8.180049,8.18005 z"
       id="path3051" /><path
       inkscape:connector-curvature="0"
       d="m 16.45208,21.959061 c 0.216062,0.149096 0.456132,0.313354 0.717681,0.492774 0.270394,0.152887 0.562268,0.318408 0.874358,0.495301 5.209506,2.954118 10.980017,4.418541 16.980489,3.799415 1.723445,-0.178157 3.434256,-0.549633 5.08189,-1.087894 2.798704,-0.913527 5.459684,-2.048171 7.904602,-3.703386 0.189528,-0.12888 0.35505,-0.238806 0.510463,-0.341152 -0.707573,-0.902155 -1.485903,-1.747452 -2.415856,-2.481559 -0.86425,-0.681039 -1.748717,-1.341862 -2.394377,-2.244018 -1.782831,-2.491667 -0.972913,-6.086391 1.435362,-7.8490061 -0.02274,-0.04928 -0.04296,-0.09729 -0.0657,-0.146569 -1.545289,-3.432992 -3.41783,-5.431886 -5.051566,-5.431886 -0.630498,0 -1.274895,0.2855563 -1.915501,0.8478241 -1.666587,1.4618959 -3.757718,2.2680239 -5.884228,2.2680239 -2.126509,0 -4.216377,-0.806128 -5.882964,-2.2680239 -0.640609,-0.5622678 -1.285006,-0.8478241 -1.915504,-0.8478241 -1.657742,0 -3.486061,1.948353 -5.014924,5.344703 -1.743662,3.8764901 -3.348336,7.4459431 -3.348336,11.9832551 0,0.104872 -0.03159,0.20469 -0.08087,0.296928 0.06823,0.160467 0.09097,0.371475 0.08213,0.616599 0.123826,0.08213 0.24007,0.160467 0.382848,0.256495 z m 7.507855,-1.460633 c -0.290611,0.137724 -0.68483,0.289347 -1.094211,0.371476 -0.406855,0.08971 -0.828872,0.11119 -1.15107,0.101082 -0.322198,-0.01011 -0.547106,-0.06697 -0.547106,-0.06697 0,0 0.183211,-0.142778 0.473822,-0.281765 0.29061,-0.138988 0.684829,-0.289347 1.094211,-0.371476 0.406854,-0.08971 0.828871,-0.108663 1.151069,-0.101082 0.322199,0.01011 0.547106,0.0657 0.547106,0.0657 0,0 -0.184474,0.144042 -0.473821,0.283029 z m 18.787327,0.472558 c -0.320935,0.01011 -0.742952,-0.01137 -1.149806,-0.101082 -0.409382,-0.08213 -0.804865,-0.235015 -1.094211,-0.371476 -0.289347,-0.138987 -0.473822,-0.280502 -0.473822,-0.280502 0,0 0.226171,-0.0556 0.547106,-0.0657 0.320935,-0.0088 0.745479,0.01137 1.152333,0.101082 0.408118,0.08213 0.802337,0.232488 1.092948,0.371476 0.29061,0.138987 0.473821,0.281765 0.473821,0.281765 0,0 -0.226171,0.05433 -0.548369,0.06444 z m 1.301429,-2.10882 c 0.49151,0.07581 0.817499,0.176893 0.817499,0.176893 0,0 -0.327252,0.101082 -0.817499,0.176893 -0.490247,0.07455 -1.142225,0.142778 -1.797994,0.138988 -0.653241,0.0038 -1.306483,-0.06191 -1.797993,-0.137724 -0.490247,-0.07581 -0.816236,-0.178157 -0.816236,-0.178157 0,0 0.327252,-0.102345 0.816236,-0.178157 0.49151,-0.07581 1.143488,-0.141514 1.797993,-0.137724 0.654505,-0.0038 1.307747,0.06444 1.797994,0.138988 z m -4.413487,-0.977967 c 0,0 0.199637,-0.09982 0.488984,-0.189529 0.289346,-0.08845 0.665876,-0.183211 1.038616,-0.241333 0.372739,-0.06318 0.748005,-0.09224 1.017136,-0.142778 0.131406,-0.02906 0.246387,-0.0518 0.305772,-0.09097 0.07202,-0.02906 0.0935,-0.108663 0.09603,-0.09729 -0.01264,0.0051 0.0417,0.04296 0.01011,0.156677 -0.03411,0.104873 -0.113717,0.250178 -0.251441,0.347469 -0.264076,0.216062 -0.663349,0.387902 -1.073994,0.449814 -0.408118,0.07076 -0.822554,0.03664 -1.128327,-0.02653 -0.304509,-0.06065 -0.502882,-0.165521 -0.502882,-0.165521 z M 37.782879,7.3021919 c 0.395483,-0.702519 1.024717,-1.556661 1.880123,-1.671642 0.814972,-0.108663 1.584458,0.392956 2.079759,0.999447 0.202164,0.246387 0.862986,1.272368 1.095474,1.900339 0.495302,1.3267 -0.772012,0.82129 -1.458105,0.48772 -0.883203,-0.429598 -1.693121,-0.569849 -2.640764,-0.770749 -0.68483,-0.144042 -1.260996,-0.403064 -0.956487,-0.945115 z M 35.945716,14.94019 c 0.523099,-0.746743 1.303956,-1.244571 2.202321,-1.402511 0.895838,-0.162995 1.799257,0.0417 2.547263,0.563531 0.214799,0.150359 0.266603,0.446024 0.117508,0.659559 -0.151623,0.214799 -0.447288,0.266604 -0.659559,0.117508 -1.110637,-0.780857 -2.650872,-0.506673 -3.427939,0.605228 -0.09097,0.131406 -0.238806,0.202163 -0.389165,0.202163 -0.0935,0 -0.188265,-0.02653 -0.271658,-0.08466 -0.217326,-0.151623 -0.26913,-0.447287 -0.118771,-0.660822 z m -6.167257,6.005526 c 0.627971,-0.233752 1.2193,-0.57364 1.704493,-1.037353 0.515518,-0.492774 0.763168,-1.052515 1.028508,-1.696912 0.01516,-0.0417 0.02653,-0.06697 0.03791,-0.09603 -0.576167,-0.02527 -1.038616,-0.521835 -1.038616,-0.818763 0,-0.304509 0.483929,-0.552159 1.081576,-0.552159 0.597646,0 1.081575,0.24765 1.081575,0.552159 0,0.296928 -0.462449,0.793493 -1.038616,0.818763 0.01137,0.02906 0.02274,0.05433 0.03791,0.09603 0.04928,0.118771 0.09476,0.319672 0.192056,0.504146 0.622917,1.178867 1.576877,1.755034 2.738054,2.310984 0,0 -0.07328,0.02022 -0.205954,0.04043 -0.130143,0.0013 -0.336097,0.08086 -0.566058,0.03285 -0.228698,-0.04422 -0.523099,-0.05686 -0.789702,-0.20469 -0.645661,-0.358841 -1.286267,-0.951433 -1.449261,-1.700703 0.06823,0.310827 -0.422017,0.900892 -0.610282,1.106847 -0.457396,0.500355 -0.985548,0.675985 -1.628682,0.798546 -0.231224,0.04801 -0.437179,-0.03159 -0.566058,-0.03285 -0.133933,-0.02022 -0.205954,-0.04043 -0.205954,-0.04043 0,0 0.07328,-0.03411 0.197109,-0.08086 z M 28.497247,14.94019 c 0.149095,0.213535 0.09729,0.509199 -0.117508,0.659559 -0.08213,0.05686 -0.178157,0.08466 -0.271657,0.08466 -0.149096,0 -0.295665,-0.07076 -0.389166,-0.202164 -0.777066,-1.1119 -2.313511,-1.386085 -3.427938,-0.605228 -0.214799,0.146569 -0.507936,0.09855 -0.659559,-0.117507 -0.149096,-0.214799 -0.09729,-0.5092 0.117507,-0.659559 0.745479,-0.523099 1.648898,-0.726526 2.547263,-0.563532 0.897102,0.157941 1.677959,0.657032 2.201058,1.403775 z m -3.671799,2.944009 c 0,0 -0.197109,0.104872 -0.502882,0.165521 -0.304509,0.06191 -0.718945,0.09729 -1.127063,0.02653 -0.408118,-0.06191 -0.809918,-0.233752 -1.073994,-0.449814 -0.137725,-0.09729 -0.217326,-0.242596 -0.252705,-0.347469 -0.03285,-0.113717 0.02274,-0.151623 0.01011,-0.156677 0.0038,-0.01011 0.02527,0.06823 0.09729,0.09729 0.05939,0.03917 0.174367,0.06191 0.305773,0.09097 0.267867,0.05054 0.643133,0.0796 1.015873,0.142778 0.374003,0.05812 0.750532,0.152887 1.039879,0.241333 0.289347,0.09097 0.48772,0.189529 0.48772,0.189529 z M 21.62368,8.5303359 c 0.235016,-0.627971 0.893311,-1.653952 1.095475,-1.900339 0.496565,-0.606491 1.267314,-1.10811 2.081023,-0.999447 0.856669,0.114981 1.48464,0.967859 1.880122,1.671642 0.304509,0.542051 -0.270394,0.79981 -0.95775,0.945115 -0.947643,0.2009 -1.757561,0.341151 -2.642027,0.770749 -0.68483,0.334834 -1.952144,0.83898 -1.456843,-0.48772 z M 20.413225,18.862166 c 0.490247,-0.07455 1.143489,-0.141515 1.797994,-0.138988 0.653241,-0.0038 1.307746,0.06191 1.797993,0.137724 0.490247,0.07581 0.8175,0.178157 0.8175,0.178157 0,0 -0.327253,0.101082 -0.8175,0.178157 -0.490247,0.07581 -1.143488,0.141514 -1.797993,0.137724 -0.653242,0.0038 -1.307747,-0.06444 -1.797994,-0.138988 -0.490247,-0.07581 -0.817499,-0.176893 -0.817499,-0.176893 0,0 0.327252,-0.101082 0.817499,-0.176893 z"
       id="path3059" /><path
       inkscape:connector-curvature="0"
       d="m 44.691824,16.186023 c 1.423991,1.991313 3.741292,3.19166 5.196871,5.195608 1.97615,2.724156 3.310431,6.015634 4.445075,9.168125 0.07834,0.216062 0.155413,0.430861 0.231225,0.651978 0.02148,0.05938 0.0417,0.130143 0.07076,0.221116 0.03917,0.121298 0.131406,0.184475 0.170576,0.109927 0.02274,-0.03917 0.04422,-0.08718 0.06444,-0.138988 0.03411,-0.08845 0.06949,-0.181947 0.106136,-0.283029 0.03664,-0.102345 0.06949,-0.193319 0.09729,-0.266603 0.413173,-1.075259 0.716418,-2.347627 0.952697,-4.002842 0.13646,-0.961541 0.223644,-1.930664 0.289347,-2.751954 0.193319,-2.413329 0.343678,-5.965093 -0.596383,-8.930582 -0.529416,-1.672905 -1.619837,-3.368553 -2.777224,-4.317459 -2.016583,-1.6552151 -5.095789,-2.3779511 -7.203346,-0.615336 -1.747453,1.473268 -2.46387,3.982626 -1.047461,5.960039 z"
       id="path3061" /><path
       inkscape:connector-curvature="0"
       d="m 32.230958,28.333536 c -0.808655,0 -1.521282,0.381584 -1.995103,0.966595 -0.357577,0.442233 -0.582484,0.998183 -0.582484,1.609729 0,1.4202 1.156123,2.576324 2.576323,2.576324 1.420201,0 2.576324,-1.156124 2.576324,-2.576324 0,-0.611546 -0.223643,-1.166232 -0.58122,-1.608465 -0.471295,-0.585012 -1.185185,-0.967859 -1.99384,-0.967859 z"
       id="path3063" /><path
       inkscape:connector-curvature="0"
       d="m 11.46369,44.52685 c 1.175077,0 2.328673,-0.533207 3.167653,-1.461897 0.793492,-0.876885 1.168759,-1.957197 1.058832,-3.038773 -0.08086,-0.793493 -0.4018,-1.584458 -0.742951,-2.422174 l -0.0935,-0.229961 c -0.140251,-0.348733 -0.277975,-0.697465 -0.39801,-1.051252 -0.411909,-1.210455 -0.636816,-2.543472 -0.703782,-4.197424 -0.112454,-2.740582 0.272921,-5.441994 0.655768,-8.058751 0.0076,-0.05307 0.01516,-0.106136 0.02274,-0.159204 l 0.04675,-0.318408 c 0.02401,-0.168048 0.07202,-0.396746 0.128879,-0.657032 0.0088,-0.03791 0.01769,-0.08213 0.0278,-0.130143 0.01516,-0.07202 -0.07329,-0.05812 -0.193319,0.03917 -0.07202,0.05812 -0.144042,0.118772 -0.216063,0.178157 -0.463713,0.381584 -0.914791,0.814973 -1.350706,1.285003 -1.070204,1.153597 -2.049434,2.500513 -2.874515,3.705914 -1.3001654,1.901602 -3.1019496,4.763483 -3.7248665,7.650633 -0.3499959,1.619837 -0.2514411,3.516385 0.2514411,4.832976 0.1301429,0.339888 0.3032456,0.675985 0.4965646,1.007028 0.1528864,0.262813 0.3247255,0.516781 0.5129905,0.763169 0.1756297,0.229961 0.3638947,0.446023 0.5660584,0.653241 0.9198449,0.940061 2.0898679,1.609729 3.3622349,1.609729 z"
       id="path3065" /></g><g
     inkscape:groupmode="layer"
     id="layer1"
     inkscape:label="Lambda"
     style="display:inline"><g
       transform="matrix(0.01899666,0,0,0.01435939,25.385925,37.314762)"
       inkscape:label="Layer 1"
       id="layer1-2"
       style="fill:#000000"><path
         id="flowRoot1306"
         d="m 354.22852,625.15545 0.21093,0 c 0,0.61719 -0.10157,1.06641 -0.30468,1.34766 -0.19923,0.28125 -0.44923,0.42187 -0.75,0.42188 -0.2461,-10e-6 -0.48243,-0.0918 -0.70899,-0.2754 -0.22657,-0.1875 -0.42969,-0.68554 -0.60937,-1.49414 l -0.50391,-2.27343 -1.74609,3.96093 -1.10743,0 2.50782,-5.40234 c -0.13282,-0.69921 -0.29297,-1.21679 -0.48047,-1.55273 -0.1875,-0.33593 -0.41993,-0.5039 -0.69727,-0.50391 -0.22266,10e-6 -0.41797,0.0859 -0.58594,0.25781 -0.16406,0.16798 -0.25586,0.4297 -0.27539,0.78516 l -0.21093,0 c 0.0117,-0.57421 0.12695,-1.0332 0.3457,-1.37695 0.21875,-0.34765 0.49219,-0.52148 0.82031,-0.52149 0.21094,10e-6 0.41016,0.0879 0.59766,0.26367 0.1914,0.17189 0.35546,0.46876 0.49219,0.89063 0.14062,0.41797 0.35742,1.28711 0.65039,2.60742 l 0.41601,1.85742 c 0.16797,0.76953 0.34375,1.28516 0.52735,1.54688 0.18749,0.25781 0.41015,0.38672 0.66797,0.38672 0.43749,0 0.68554,-0.3086 0.74414,-0.92579"
         transform="matrix(104.6563,0,0,104.6563,-36414.11,-64667.67)"
         inkscape:connector-curvature="0"
         style="fill:#000000" /></g></g><g
     inkscape:groupmode="layer"
     id="layer3"
     inkscape:label="Cats" /></svg>